<?xml version="1.0" encoding="UTF-8" ?>
<!DOCTYPE svg PUBLIC "-//W3C//DTD SVG 1.1//EN" "http://www.w3.org/Graphics/SVG/1.1/DTD/svg11.dtd">
<svg width="188pt" height="188pt" viewBox="0 0 188 188" version="1.1" xmlns="http://www.w3.org/2000/svg">
<path fill="#fff" d=" M 92.17 4.09 C 101.62 3.70 111.18 4.88 120.17 7.89 C 129.07 10.59 137.57 15.05 144.04 21.83 C 155.90 32.33 162.52 47.26 167.06 62.12 C 169.95 70.19 167.66 78.87 168.75 87.18 C 171.57 93.14 175.58 98.48 178.44 104.42 C 178.74 107.48 179.00 110.79 177.55 113.63 C 175.07 119.80 172.54 125.94 170.25 132.18 C 169.42 134.21 168.63 136.66 166.34 137.46 C 158.23 140.98 149.46 143.75 142.70 149.66 C 139.57 154.63 137.38 160.13 134.46 165.22 C 128.51 168.81 122.50 172.27 116.46 175.69 C 118.63 165.92 122.27 156.55 125.06 146.94 C 125.64 144.18 125.37 141.34 125.45 138.54 C 129.78 137.49 135.03 137.92 138.13 134.18 C 142.64 129.35 148.25 125.55 152.10 120.14 C 142.30 121.93 132.89 125.37 123.38 128.28 C 116.37 130.18 110.91 135.31 105.79 140.19 C 111.60 140.21 117.37 138.57 123.24 139.56 C 123.91 147.75 119.84 155.09 117.68 162.74 C 115.58 167.62 115.14 173.22 112.32 177.74 C 107.74 180.17 103.00 182.50 98.00 183.93 C 93.21 183.67 88.84 181.25 84.28 179.91 C 82.74 179.20 80.33 179.07 80.09 176.98 C 77.16 168.01 74.21 159.04 71.11 150.13 C 69.71 146.61 70.32 142.74 70.30 139.05 C 75.79 138.67 81.24 140.66 86.69 139.88 C 84.87 136.81 81.54 135.21 78.75 133.17 C 74.67 130.19 69.84 128.54 65.04 127.14 C 57.66 124.97 50.41 122.31 42.87 120.72 C 45.40 124.90 49.26 127.99 52.67 131.40 C 54.96 133.46 57.12 135.78 59.92 137.15 C 62.70 137.97 65.58 138.43 68.33 139.37 C 66.81 147.13 70.32 154.38 72.42 161.63 C 74.22 166.88 75.63 172.24 77.16 177.57 C 70.48 175.02 64.11 171.70 58.03 167.94 C 50.86 162.50 49.74 151.91 41.78 147.25 C 35.22 143.50 27.89 141.40 21.16 138.01 C 19.51 136.45 18.80 134.17 17.84 132.16 C 15.19 125.72 12.16 119.43 9.59 112.96 C 9.23 109.71 9.44 106.39 9.85 103.15 C 12.30 96.92 16.97 91.90 19.91 85.92 C 20.41 81.35 19.94 76.69 20.97 72.16 C 21.98 67.26 22.08 62.05 24.35 57.51 C 26.24 57.59 28.16 57.47 30.03 57.79 C 34.71 59.91 39.35 62.31 43.32 65.61 C 50.56 72.05 56.70 79.59 63.22 86.71 C 69.46 93.50 79.00 96.38 88.03 96.01 C 93.69 95.89 99.36 96.21 105.01 95.84 C 113.16 94.38 120.38 89.94 127.00 85.18 C 132.74 81.13 136.38 75.00 140.78 69.68 C 141.87 68.19 143.25 66.86 143.98 65.14 C 144.24 62.17 143.62 59.23 143.09 56.33 C 140.24 56.84 137.24 57.64 134.40 56.63 C 126.85 54.88 122.49 47.16 121.40 39.99 C 121.49 37.12 120.79 33.37 123.47 31.43 C 125.15 29.80 127.60 29.61 129.76 29.06 C 125.56 21.97 118.27 17.36 110.79 14.32 C 103.94 11.45 96.16 10.64 90.04 6.21 C 90.57 5.68 91.64 4.62 92.17 4.09 Z" />
</svg>
